<svg width="400" height="300" viewBox="0 0 400 300" fill="none" xmlns="http://www.w3.org/2000/svg">
  <rect width="400" height="300" fill="#f3f4f6"/>
  <rect x="20" y="20" width="360" height="260" rx="8" fill="#ffffff" stroke="#e5e7eb" stroke-width="2"/>
  
  <!-- Header -->
  <rect x="40" y="40" width="320" height="40" rx="4" fill="#3b82f6"/>
  <text x="60" y="65" font-family="Arial, sans-serif" font-size="16" font-weight="bold" fill="white">CronPost Dashboard</text>
  
  <!-- Sidebar -->
  <rect x="40" y="100" width="80" height="160" rx="4" fill="#f9fafb"/>
  <rect x="50" y="120" width="60" height="8" rx="2" fill="#6b7280"/>
  <rect x="50" y="140" width="60" height="8" rx="2" fill="#6b7280"/>
  <rect x="50" y="160" width="60" height="8" rx="2" fill="#6b7280"/>
  <rect x="50" y="180" width="60" height="8" rx="2" fill="#6b7280"/>
  
  <!-- Main Content -->
  <rect x="140" y="100" width="220" height="80" rx="4" fill="#f0f9ff"/>
  <text x="160" y="125" font-family="Arial, sans-serif" font-size="14" font-weight="bold" fill="#1e40af">Analytics Overview</text>
  <rect x="160" y="140" width="40" height="30" rx="2" fill="#3b82f6"/>
  <rect x="210" y="140" width="40" height="30" rx="2" fill="#10b981"/>
  <rect x="260" y="140" width="40" height="30" rx="2" fill="#f59e0b"/>
  <rect x="310" y="140" width="40" height="30" rx="2" fill="#ef4444"/>
  
  <!-- Chart Area -->
  <rect x="140" y="200" width="220" height="60" rx="4" fill="#fefefe"/>
  <text x="160" y="220" font-family="Arial, sans-serif" font-size="12" fill="#6b7280">Engagement Trends</text>
  <path d="M160 250 L200 240 L240 245 L280 235 L320 230" stroke="#3b82f6" stroke-width="2" fill="none"/>
  
  <!-- Icons -->
  <circle cx="320" cy="60" r="12" fill="#10b981"/>
  <text x="320" y="65" text-anchor="middle" font-family="Arial, sans-serif" font-size="12" fill="white">✓</text>
</svg>
