<svg width="400" height="300" viewBox="0 0 400 300" fill="none" xmlns="http://www.w3.org/2000/svg">
  <rect width="400" height="300" fill="#f3f4f6"/>
  <rect x="20" y="20" width="360" height="260" rx="8" fill="#ffffff" stroke="#e5e7eb" stroke-width="2"/>
  
  <!-- Header -->
  <rect x="40" y="40" width="320" height="40" rx="4" fill="#f59e0b"/>
  <text x="60" y="65" font-family="Arial, sans-serif" font-size="16" font-weight="bold" fill="white">Etsy Analytics Pro</text>
  
  <!-- Revenue Chart -->
  <rect x="40" y="100" width="320" height="80" rx="4" fill="#fefefe"/>
  <text x="60" y="125" font-family="Arial, sans-serif" font-size="14" font-weight="bold" fill="#d97706">Revenue Trends</text>
  
  <!-- Chart Bars -->
  <rect x="80" y="180" width="20" height="40" fill="#fbbf24"/>
  <rect x="110" y="170" width="20" height="50" fill="#f59e0b"/>
  <rect x="140" y="160" width="20" height="60" fill="#d97706"/>
  <rect x="170" y="150" width="20" height="70" fill="#b45309"/>
  <rect x="200" y="140" width="20" height="80" fill="#92400e"/>
  <rect x="230" y="130" width="20" height="90" fill="#78350f"/>
  <rect x="260" y="120" width="20" height="100" fill="#451a03"/>
  
  <!-- Metrics Grid -->
  <rect x="40" y="200" width="320" height="60" rx="4" fill="#fefefe"/>
  
  <!-- Metric 1 -->
  <rect x="60" y="220" width="60" height="30" rx="2" fill="#fef3c7"/>
  <text x="70" y="235" font-family="Arial, sans-serif" font-size="10" fill="#92400e">Revenue</text>
  <text x="70" y="245" font-family="Arial, sans-serif" font-size="12" font-weight="bold" fill="#d97706">$12.5K</text>
  
  <!-- Metric 2 -->
  <rect x="140" y="220" width="60" height="30" rx="2" fill="#dcfce7"/>
  <text x="150" y="235" font-family="Arial, sans-serif" font-size="10" fill="#16a34a">Orders</text>
  <text x="150" y="245" font-family="Arial, sans-serif" font-size="12" font-weight="bold" fill="#059669">+30%</text>
  
  <!-- Metric 3 -->
  <rect x="220" y="220" width="60" height="30" rx="2" fill="#dbeafe"/>
  <text x="230" y="235" font-family="Arial, sans-serif" font-size="10" fill="#1d4ed8">Views</text>
  <text x="230" y="245" font-family="Arial, sans-serif" font-size="12" font-weight="bold" fill="#2563eb">45K</text>
  
  <!-- Metric 4 -->
  <rect x="300" y="220" width="40" height="30" rx="2" fill="#fce7f3"/>
  <text x="310" y="235" font-family="Arial, sans-serif" font-size="10" fill="#be185d">Conv.</text>
  <text x="310" y="245" font-family="Arial, sans-serif" font-size="12" font-weight="bold" fill="#ec4899">4.2%</text>
  
  <!-- Performance Indicator -->
  <rect x="320" y="60" width="40" height="20" rx="4" fill="#10b981"/>
  <text x="330" y="75" font-family="Arial, sans-serif" font-size="10" fill="white">+45%</text>
</svg>
