<svg width="400" height="300" viewBox="0 0 400 300" fill="none" xmlns="http://www.w3.org/2000/svg">
  <rect width="400" height="300" fill="#f3f4f6"/>
  <rect x="20" y="20" width="360" height="260" rx="8" fill="#ffffff" stroke="#e5e7eb" stroke-width="2"/>
  
  <!-- Header -->
  <rect x="40" y="40" width="320" height="40" rx="4" fill="#059669"/>
  <text x="60" y="65" font-family="Arial, sans-serif" font-size="16" font-weight="bold" fill="white">PropertyIQ Analytics</text>
  
  <!-- Map Area -->
  <rect x="40" y="100" width="200" height="140" rx="4" fill="#f0fdf4" stroke="#bbf7d0" stroke-width="1"/>
  <text x="60" y="125" font-family="Arial, sans-serif" font-size="14" font-weight="bold" fill="#16a34a">Market Heatmap</text>
  
  <!-- Property Markers -->
  <circle cx="80" cy="160" r="8" fill="#dc2626" opacity="0.8"/>
  <circle cx="120" cy="140" r="6" fill="#f59e0b" opacity="0.6"/>
  <circle cx="160" cy="180" r="10" fill="#dc2626" opacity="0.9"/>
  <circle cx="200" cy="150" r="7" fill="#10b981" opacity="0.7"/>
  <circle cx="140" cy="200" r="5" fill="#f59e0b" opacity="0.5"/>
  
  <!-- Grid Lines -->
  <line x1="60" y1="140" x2="220" y2="140" stroke="#d1fae5" stroke-width="1"/>
  <line x1="60" y1="160" x2="220" y2="160" stroke="#d1fae5" stroke-width="1"/>
  <line x1="60" y1="180" x2="220" y2="180" stroke="#d1fae5" stroke-width="1"/>
  <line x1="60" y1="200" x2="220" y2="200" stroke="#d1fae5" stroke-width="1"/>
  
  <!-- Analytics Panel -->
  <rect x="260" y="100" width="100" height="140" rx="4" fill="#fefefe"/>
  <text x="270" y="125" font-family="Arial, sans-serif" font-size="12" font-weight="bold" fill="#374151">Market Stats</text>
  
  <!-- Metrics -->
  <text x="270" y="145" font-family="Arial, sans-serif" font-size="10" fill="#6b7280">Avg Price:</text>
  <text x="270" y="155" font-family="Arial, sans-serif" font-size="12" font-weight="bold" fill="#16a34a">$450K</text>
  
  <text x="270" y="175" font-family="Arial, sans-serif" font-size="10" fill="#6b7280">ROI Potential:</text>
  <text x="270" y="185" font-family="Arial, sans-serif" font-size="12" font-weight="bold" fill="#dc2626">High</text>
  
  <text x="270" y="205" font-family="Arial, sans-serif" font-size="10" fill="#6b7280">Market Trend:</text>
  <text x="270" y="215" font-family="Arial, sans-serif" font-size="12" font-weight="bold" fill="#f59e0b">+12%</text>
  
  <text x="270" y="235" font-family="Arial, sans-serif" font-size="10" fill="#6b7280">Risk Score:</text>
  <text x="270" y="245" font-family="Arial, sans-serif" font-size="12" font-weight="bold" fill="#10b981">Low</text>
  
  <!-- Prediction Chart -->
  <rect x="40" y="260" width="320" height="20" rx="4" fill="#f3f4f6"/>
  <text x="60" y="275" font-family="Arial, sans-serif" font-size="12" fill="#6b7280">Price Prediction: $485K (85% confidence)</text>
  
  <!-- AI Icon -->
  <circle cx="320" cy="60" r="12" fill="#059669"/>
  <text x="320" y="65" text-anchor="middle" font-family="Arial, sans-serif" font-size="10" fill="white">AI</text>
</svg>
